<?xml version="1.0" encoding="UTF-8" standalone="no"?>
<!-- Created with Inkscape (http://www.inkscape.org/) -->

<svg
   width="70mm"
   height="70mm"
   viewBox="0 0 70 70"
   version="1.1"
   id="svg1"
   inkscape:version="1.3.2 (091e20e, 2023-11-25, custom)"
   sodipodi:docname="drawing.svg"
   xmlns:inkscape="http://www.inkscape.org/namespaces/inkscape"
   xmlns:sodipodi="http://sodipodi.sourceforge.net/DTD/sodipodi-0.dtd"
   xmlns="http://www.w3.org/2000/svg"
   xmlns:svg="http://www.w3.org/2000/svg">
  <sodipodi:namedview
     id="namedview1"
     pagecolor="#ffffff"
     bordercolor="#000000"
     borderopacity="0.25"
     inkscape:showpageshadow="2"
     inkscape:pageopacity="0.0"
     inkscape:pagecheckerboard="0"
     inkscape:deskcolor="#d1d1d1"
     inkscape:document-units="mm"
     inkscape:zoom="3.0639707"
     inkscape:cx="89.589631"
     inkscape:cy="131.85505"
     inkscape:window-width="2560"
     inkscape:window-height="1494"
     inkscape:window-x="-11"
     inkscape:window-y="-11"
     inkscape:window-maximized="1"
     inkscape:current-layer="layer1" />
  <defs
     id="defs1" />
  <g
     inkscape:label="Layer 1"
     inkscape:groupmode="layer"
     id="layer1">
    <path
       d="m 37.981324,48.483324 h 10.583333 l 5.291666,9.16516 -5.291666,9.16517 H 37.981324 l -5.291667,-9.16517 z"
       id="path2"
       style="fill:none;stroke:#000000;stroke-width:0.529167;stroke-opacity:1" />
    <path
       d="m 53.856323,39.318154 h 10.583334 l 5.291666,9.16517 -5.291666,9.16516 H 53.856323 l -5.291666,-9.16516 z"
       id="path7"
       style="fill:none;stroke:#000000;stroke-width:0.529167;stroke-opacity:1" />
    <path
       d="m 37.981324,30.152984 h 10.583333 l 5.291666,9.16517 -5.291666,9.16517 H 37.981324 l -5.291667,-9.16517 z"
       id="path17"
       style="fill:#8c114a;fill-opacity:1;stroke:#000000;stroke-width:0.529167;stroke-opacity:1" />
    <path
       d="m 53.856323,20.987822 h 10.583334 l 5.291666,9.165162 -5.291666,9.16517 H 53.856323 l -5.291666,-9.16517 z"
       id="path27"
       style="fill:none;stroke:#000000;stroke-width:0.529167;stroke-opacity:1" />
    <path
       d="m 37.981324,11.822655 h 10.583333 l 5.291666,9.165167 -5.291666,9.165162 H 37.981324 l -5.291667,-9.165162 z"
       id="path37"
       style="fill:none;stroke:#000000;stroke-width:0.529167;stroke-opacity:1" />
    <path
       d="m 53.856323,2.6574871 h 10.583334 l 5.291666,9.1651679 -5.291666,9.165164 H 53.856323 l -5.291666,-9.165164 z"
       id="path47"
       style="fill:none;stroke:#000000;stroke-width:0.529167;stroke-opacity:1" />
    <path
       d="M 6.2313239,48.483324 H 16.814657 l 5.291667,9.16516 -5.291667,9.16517 H 6.2313239 l -5.29166704,-9.16517 z"
       id="path106"
       style="fill:none;stroke:#000000;stroke-width:0.529167;stroke-opacity:1" />
    <path
       d="m 22.106324,39.318154 h 10.583333 l 5.291667,9.16517 -5.291667,9.16516 H 22.106324 l -5.291667,-9.16516 z"
       id="path107"
       style="fill:none;stroke:#000000;stroke-width:0.529167;stroke-opacity:1" />
    <path
       d="M 6.2313239,30.152984 H 16.814657 l 5.291667,9.16517 -5.291667,9.16517 H 6.2313239 l -5.29166704,-9.16517 z"
       id="path109"
       style="fill:none;stroke:#000000;stroke-width:0.529167;stroke-opacity:1" />
    <path
       d="m 22.106324,20.987822 h 10.583333 l 5.291667,9.165162 -5.291667,9.16517 H 22.106324 l -5.291667,-9.16517 z"
       id="path111"
       style="fill:#158c11;fill-opacity:1;stroke:#000000;stroke-width:0.529167;stroke-opacity:1" />
    <path
       d="M 6.2313239,11.822655 H 16.814657 l 5.291667,9.165167 -5.291667,9.165162 H 6.2313239 L 0.93965686,20.987822 Z"
       id="path113"
       style="fill:none;stroke:#000000;stroke-width:0.529167;stroke-opacity:1" />
    <path
       d="m 22.106324,2.6574871 h 10.583333 l 5.291667,9.1651679 -5.291667,9.165164 H 22.106324 l -5.291667,-9.165164 z"
       id="path115"
       style="fill:none;stroke:#000000;stroke-width:0.529167;stroke-opacity:1" />
  </g>
</svg>
